{
  "accessors": [
    {
      "bufferView": 2,
      "componentType": 5126,
      "count": 4999,
      "max": [
        66.65876770019531,
        7.950805187225342,
        36.617122650146484
      ],
      "min": [
        -71.21851348876953,
        -4.196023941040039,
        2.6551458835601807
      ],
      "type": "VEC3"
    },
    {
      "bufferView": 2,
      "byteOffset": 59988,
      "componentType": 5126,
      "count": 4999,
      "max": [
        1.0,
        1.0,
        1.0
      ],
      "min": [
        -1.0,
        -1.0,
        -1.0
      ],
      "type": "VEC3"
    },
    {
      "bufferView": 3,
      "componentType": 5126,
      "count": 4999,
      "max": [
        1.0,
        1.0,
        1.0,
        1.0
      ],
      "min": [
        -1.0,
        -1.0,
        -1.0,
        -1.0
      ],
      "type": "VEC4"
    },
    {
      "bufferView": 1,
      "componentType": 5126,
      "count": 4999,
      "max": [
        0.9951170086860657,
        0.9926310181617737
      ],
      "min": [
        0.0030330000445246696,
        0.003536999924108386
      ],
      "type": "VEC2"
    },
    {
      "bufferView": 0,
      "componentType": 5125,
      "count": 17154,
      "type": "SCALAR"
    },
    {
      "bufferView": 2,
      "byteOffset": 119976,
      "componentType": 5126,
      "count": 9954,
      "max": [
        69.2064437866211,
        8.131586074829102,
        37.79487228393555
      ],
      "min": [
        -72.11052703857422,
        -4.255889892578125,
        2.3211209774017334
      ],
      "type": "VEC3"
    },
    {
      "bufferView": 2,
      "byteOffset": 239424,
      "componentType": 5126,
      "count": 9954,
      "max": [
        1.0,
        1.0,
        1.0
      ],
      "min": [
        -1.0,
        -1.0,
        -1.0
      ],
      "type": "VEC3"
    },
    {
      "bufferView": 3,
      "byteOffset": 79984,
      "componentType": 5126,
      "count": 9954,
      "max": [
        1.0,
        1.0,
        1.0,
        1.0
      ],
      "min": [
        -1.0,
        -1.0,
        -1.0,
        -1.0
      ],
      "type": "VEC4"
    },
    {
      "bufferView": 1,
      "byteOffset": 39992,
      "componentType": 5126,
      "count": 9954,
      "max": [
        1.9767889976501465,
        0.9957150220870972
      ],
      "min": [
        1.0062730312347412,
        0.0071829999797046185
      ],
      "type": "VEC2"
    },
    {
      "bufferView": 0,
      "byteOffset": 68616,
      "componentType": 5125,
      "count": 24222,
      "type": "SCALAR"
    },
    {
      "bufferView": 2,
      "byteOffset": 358872,
      "componentType": 5126,
      "count": 3845,
      "max": [
        69.95933532714844,
        8.312990188598633,
        37.79487228393555
      ],
      "min": [
        -66.81312561035156,
        -4.368177890777588,
        3.6396069526672363
      ],
      "type": "VEC3"
    },
    {
      "bufferView": 2,
      "byteOffset": 405012,
      "componentType": 5126,
      "count": 3845,
      "max": [
        1.0,
        1.0,
        1.0
      ],
      "min": [
        -1.0,
        -1.0,
        -1.0
      ],
      "type": "VEC3"
    },
    {
      "bufferView": 3,
      "byteOffset": 239248,
      "componentType": 5126,
      "count": 3845,
      "max": [
        1.0,
        1.0,
        1.0,
        1.0
      ],
      "min": [
        -1.0,
        -1.0,
        -0.9999999403953552,
        -1.0
      ],
      "type": "VEC4"
    },
    {
      "bufferView": 1,
      "byteOffset": 119624,
      "componentType": 5126,
      "count": 3845,
      "max": [
        1.9864790439605713,
        0.9994819760322571
      ],
      "min": [
        1.0062730312347412,
        0.0071829999797046185
      ],
      "type": "VEC2"
    },
    {
      "bufferView": 0,
      "byteOffset": 165504,
      "componentType": 5125,
      "count": 12336,
      "type": "SCALAR"
    }
  ],
  "asset": {
    "extras": {
      "author": "PoketCoco (https://sketchfab.com/PoketCoco)",
      "license": "CC-BY-4.0 (http://creativecommons.org/licenses/by/4.0/)",
      "source": "https://sketchfab.com/3d-models/gun-6475db58c91345b09db7ca95986a8922",
      "title": "Gun"
    },
    "generator": "Sketchfab-12.66.0",
    "version": "2.0"
  },
  "bufferViews": [
    {
      "buffer": 0,
      "byteLength": 214848,
      "name": "floatBufferViews",
      "target": 34963
    },
    {
      "buffer": 0,
      "byteLength": 150384,
      "byteOffset": 214848,
      "byteStride": 8,
      "name": "floatBufferViews",
      "target": 34962
    },
    {
      "buffer": 0,
      "byteLength": 451152,
      "byteOffset": 365232,
      "byteStride": 12,
      "name": "floatBufferViews",
      "target": 34962
    },
    {
      "buffer": 0,
      "byteLength": 300768,
      "byteOffset": 816384,
      "byteStride": 16,
      "name": "floatBufferViews",
      "target": 34962
    }
  ],
  "buffers": [
    {
      "byteLength": 1117152,
      "uri": "scene.bin"
    }
  ],
  "images": [
    {
      "uri": "textures/aiStandardSurface1SG_baseColor.png"
    },
    {
      "uri": "textures/aiStandardSurface1SG_metallicRoughness.png"
    },
    {
      "uri": "textures/aiStandardSurface1SG_normal.png"
    },
    {
      "uri": "textures/aiStandardSurface2SG_baseColor.png"
    },
    {
      "uri": "textures/aiStandardSurface2SG_metallicRoughness.png"
    },
    {
      "uri": "textures/aiStandardSurface2SG_normal.png"
    }
  ],
  "materials": [
    {
      "doubleSided": true,
      "name": "aiStandardSurface1SG",
      "normalTexture": {
        "index": 2
      },
      "pbrMetallicRoughness": {
        "baseColorTexture": {
          "index": 0
        },
        "metallicRoughnessTexture": {
          "index": 1
        },
        "roughnessFactor": 0.8626702993
      }
    },
    {
      "doubleSided": true,
      "name": "aiStandardSurface2SG",
      "normalTexture": {
        "index": 5
      },
      "pbrMetallicRoughness": {
        "baseColorTexture": {
          "index": 3
        },
        "metallicRoughnessTexture": {
          "index": 4
        }
      }
    }
  ],
  "meshes": [
    {
      "name": "Object_0",
      "primitives": [
        {
          "attributes": {
            "NORMAL": 1,
            "POSITION": 0,
            "TANGENT": 2,
            "TEXCOORD_0": 3
          },
          "indices": 4,
          "material": 0,
          "mode": 4
        }
      ]
    },
    {
      "name": "Object_1",
      "primitives": [
        {
          "attributes": {
            "NORMAL": 6,
            "POSITION": 5,
            "TANGENT": 7,
            "TEXCOORD_0": 8
          },
          "indices": 9,
          "material": 1,
          "mode": 4
        }
      ]
    },
    {
      "name": "Object_2",
      "primitives": [
        {
          "attributes": {
            "NORMAL": 11,
            "POSITION": 10,
            "TANGENT": 12,
            "TEXCOORD_0": 13
          },
          "indices": 14,
          "material": 1,
          "mode": 4
        }
      ]
    }
  ],
  "nodes": [
    {
      "children": [
        1
      ],
      "matrix": [
        1.0,
        0.0,
        0.0,
        0.0,
        0.0,
        2.220446049250313e-16,
        -1.0,
        0.0,
        0.0,
        1.0,
        2.220446049250313e-16,
        0.0,
        0.0,
        0.0,
        0.0,
        1.0
      ],
      "name": "Sketchfab_model"
    },
    {
      "children": [
        2,
        3,
        4
      ],
      "name": "AirGun03.obj.cleaner.materialmerger.gles"
    },
    {
      "mesh": 0,
      "name": "Object_2"
    },
    {
      "mesh": 1,
      "name": "Object_3"
    },
    {
      "mesh": 2,
      "name": "Object_4"
    }
  ],
  "samplers": [
    {
      "magFilter": 9729,
      "minFilter": 9987,
      "wrapS": 10497,
      "wrapT": 10497
    }
  ],
  "scene": 0,
  "scenes": [
    {
      "name": "Sketchfab_Scene",
      "nodes": [
        0
      ]
    }
  ],
  "textures": [
    {
      "sampler": 0,
      "source": 0
    },
    {
      "sampler": 0,
      "source": 1
    },
    {
      "sampler": 0,
      "source": 2
    },
    {
      "sampler": 0,
      "source": 3
    },
    {
      "sampler": 0,
      "source": 4
    },
    {
      "sampler": 0,
      "source": 5
    }
  ]
}
